# xmcd CD database file
#
# Track frame offsets:
#	150
#	12246
#	24606
#	37302
#	50075
#	60474
#	72732
#	84396
#	96380
#	108473
#	118950
#	130349
#	141425
#	154751
#	167052
#
# Disc length: 2394 seconds
#
# Revision: 1
# Processed by: cddbd v1.5PL3 Copyright (c) Steve Scherf et al.
# Submitted via: CDex 1.50beta10
#
DISCID=e209580f
DTITLE=Lightnin' Hopkins - Moon Rise
DYEAR=2000
DGENRE=Blues
TTITLE0=Can't Get That Woman Off My Mind
TTITLE1=Woman, Woman
TTITLE2=Picture On The Wall
TTITLE3=You're Not Going To Worry My Life Anymore
TTITLE4=You're Gonna Miss Me
TTITLE5=Sugar On My Mind
TTITLE6=Nightmare Blues
TTITLE7=Someday Baby
TTITLE8=Come Back Baby
TTITLE9=Lightnin's Boogie
TTITLE10=Baby., You're Not Going To Make A Fool Out Of Me
TTITLE11=Daddy Will Come Home One Day
TTITLE12=Moon Rise Blues
TTITLE13=Howlin' Wolf Blues
TTITLE14=Morning Blues
EXTD=YEAR: 2000
EXTT0=
EXTT1=
EXTT2=
EXTT3=
EXTT4=
EXTT5=
EXTT6=
EXTT7=
EXTT8=
EXTT9=
EXTT10=
EXTT11=
EXTT12=
EXTT13=
EXTT14=
PLAYORDER=
